<svg width="77" height="97" viewBox="0 0 77 97" fill="none" xmlns="http://www.w3.org/2000/svg">
<path d="M52.8717 49.6718C54.4732 49.1231 55.887 48.1329 56.95 46.8153C57.9842 45.5366 58.6678 44.0108 58.9337 42.3878C59.2195 40.7359 59.0588 39.0375 58.4682 37.4684C57.8923 35.8492 56.8722 34.4248 55.5245 33.3583C54.1809 32.2951 52.5173 31.5175 50.5654 31.0732L26.9495 25.9475C25.9577 25.757 25.2568 25.4555 24.823 25.0588C24.4069 24.6675 24.0888 24.1836 23.8947 23.6464C23.6567 22.9958 23.7016 22.2976 24.0375 21.5359C24.3761 20.7741 24.9976 20.2187 25.9259 19.8855L58.5634 8.34863C61.8507 11.3041 64.479 14.9185 66.2771 18.9568C68.0752 22.9951 69.003 27.3668 69 31.7873C69 49.3226 54.6807 63.5255 36.9999 63.5255C34.4556 63.5255 31.9747 63.224 29.6102 62.6686C27.2722 62.129 27.0976 58.8917 29.3537 58.0824L52.8717 49.6718Z" fill="white"/>
<path d="M21.287 14.3155C19.5414 14.9503 18.1502 15.9183 17.0817 17.2037C16.0238 18.505 15.3361 19.9808 15.0637 21.647C14.7769 23.2988 14.9367 24.9972 15.5265 26.5665C16.1666 28.2962 17.1425 29.6609 18.4703 30.6766C19.798 31.6922 21.4801 32.4539 23.5113 32.93L47.1246 38.0557C48.1164 38.2461 48.8226 38.5476 49.2537 38.9444C49.6689 39.3411 49.9889 39.8172 50.1794 40.3567C50.4227 41.0073 50.3724 41.7056 50.0365 42.4673C49.7006 43.229 49.095 43.7686 48.2301 44.0859L22.0858 53.4487C17.9254 54.9404 13.2678 53.4963 10.7394 49.9099C6.99591 44.6091 4.9905 38.2768 5.00003 31.7874C5.00003 14.252 19.3192 0.0491943 36.9974 0.0491943C42.2792 0.0491943 47.27 1.31872 51.6525 3.57213L21.2923 14.3155H21.287Z" fill="white"/>
<path d="M13.8711 88.5362L4.48438 80.8657L4.47708 80.8584C4.17522 80.6328 3.96831 80.429 3.85024 80.2471C3.748 80.0943 3.70419 79.8905 3.70419 79.6503C3.70419 79.483 3.75531 79.3301 3.85024 79.17C3.96101 78.9954 4.10098 78.8571 4.26408 78.7479C4.41006 78.6523 4.5811 78.6017 4.75581 78.6024H15.2562V75.393H4.48438C3.57152 75.393 2.76819 75.5895 2.09146 75.9679C1.4135 76.3536 0.884039 76.8776 0.529847 77.5326C0.172553 78.202 -0.00954943 78.9504 0.000385798 79.7086C0.000385798 80.4873 0.169569 81.1932 0.500635 81.7972C0.831701 82.394 1.33317 82.9689 1.9953 83.5002L11.3832 91.1416L11.3978 91.1489C11.6181 91.3162 11.8031 91.4618 11.9419 91.5928C12.0453 91.6874 12.1123 91.782 12.1415 91.8693C12.1634 91.9421 12.1926 92.0804 12.1926 92.3278C12.1935 92.508 12.1428 92.6847 12.0466 92.8372C11.9525 93.0087 11.8116 93.1501 11.64 93.2448C11.4596 93.3506 11.2529 93.4036 11.0436 93.3976H0.000385798V96.6143H11.3613C12.7452 96.6143 13.8565 96.1849 14.6744 95.348C15.4911 94.5111 15.9037 93.4631 15.9037 92.2405C15.9037 91.4545 15.7333 90.7777 15.4108 90.2173C15.0943 89.6715 14.5709 89.1039 13.8711 88.5362V88.5362ZM37.1455 78.2239C36.1508 77.1974 34.9518 76.3893 33.6255 75.8515C32.2635 75.2911 30.7165 75 29.0392 75C27.3596 75 25.8138 75.2838 24.4518 75.8515C23.125 76.3885 21.9259 77.1967 20.9318 78.2239C19.9629 79.2361 19.1985 80.4245 18.68 81.7244C18.1438 83.0772 17.8735 84.5201 17.884 85.9745C17.884 87.481 18.1494 88.9147 18.68 90.2392C19.1965 91.5444 19.9611 92.738 20.9318 93.7542C21.9254 94.7805 23.1214 95.5907 24.4445 96.134C25.8077 96.7089 27.3535 97 29.0319 97C30.7104 97 32.2574 96.7089 33.6182 96.134C34.9399 95.5881 36.1354 94.7782 37.1309 93.7542C38.1015 92.7379 38.8661 91.5444 39.3826 90.2392C39.9182 88.8811 40.1884 87.4336 40.1786 85.9745C40.1895 84.5202 39.9196 83.0773 39.3838 81.7244C38.8737 80.4232 38.1129 79.234 37.1443 78.2239H37.1455ZM36.6148 86.0036C36.6148 87.1025 36.4237 88.136 36.0488 89.0748C35.6838 89.9959 35.1408 90.8365 34.4507 91.5491C33.7665 92.2554 32.9448 92.8151 32.0359 93.1938C31.0863 93.5863 30.0672 93.7843 29.0392 93.7761C27.9487 93.7761 26.9336 93.5796 26.0122 93.1938C25.1083 92.8183 24.2935 92.258 23.6205 91.5491C22.9373 90.8339 22.3996 89.9937 22.037 89.0748C21.6517 88.0867 21.4591 87.0345 21.4698 85.9745C21.4698 84.8538 21.6609 83.8131 22.037 82.8743C22.3976 81.959 22.9352 81.1232 23.6193 80.4145C24.2973 79.7182 25.1118 79.1682 26.0122 78.7989C26.9735 78.4108 28.0021 78.2154 29.0392 78.2239C30.1067 78.2239 31.1145 78.4132 32.0359 78.7989C32.9406 79.1681 33.7599 79.7179 34.4434 80.4145C35.136 81.1221 35.6791 81.961 36.0403 82.8816C36.4237 83.8349 36.6148 84.8829 36.6148 86.0036V86.0036ZM56.693 78.6097V75.393H40.4951V78.6097H46.8048V96.6143H50.3833V78.6097H56.693ZM69.7409 77.5617C69.4159 76.6884 68.9376 76.048 68.3046 75.6404C67.6863 75.2402 66.9646 75.0437 66.1624 75.0437C65.3591 75.0437 64.6447 75.2547 64.0263 75.6623C63.4153 76.0771 62.9297 76.7248 62.584 77.5908L55.3456 96.6216H59.131L60.964 91.6728H71.294L73.0978 96.6216H77L69.7397 77.5617H69.7409ZM70.1742 88.4489H62.1349L65.7425 78.777L65.7498 78.7552C65.8083 78.5514 65.8898 78.3986 65.9701 78.2967C66.0067 78.2531 66.0517 78.2167 66.1612 78.2167C66.3012 78.2167 66.3536 78.2603 66.3828 78.2967C66.4716 78.3986 66.5592 78.5587 66.6408 78.7698L70.1742 88.4489Z" fill="white"/>
</svg>
